<?xml version="1.0" encoding="UTF-8"?>
<svg xmlns="http://www.w3.org/2000/svg" width="170" height="19" viewBox="0 0 170 19">
  <g>
    <g>
      <g>
        <g>
          <path fill="#161615" d="M21.12 16.382l1.145-2.57c1.426 1.146 3.69 1.96 5.879 1.96 2.774 0 3.945-.993 3.945-2.316 0-3.843-10.587-1.323-10.587-7.94 0-2.876 2.29-5.319 7.176-5.319 2.138 0 4.378.56 5.93 1.578l-1.044 2.57c-1.603-.941-3.359-1.4-4.911-1.4-2.749 0-3.868 1.07-3.868 2.418 0 3.792 10.561 1.323 10.561 7.864 0 2.85-2.316 5.293-7.202 5.293-2.774 0-5.548-.865-7.024-2.138z"></path>
        </g>
        <g>
          <path fill="#161615" d="M37.357 9.359c0-5.32 4.072-9.162 9.544-9.162 2.9 0 5.394 1.044 7.049 2.978l-2.138 2.01c-1.298-1.4-2.901-2.087-4.759-2.087-3.69 0-6.362 2.596-6.362 6.26 0 3.665 2.672 6.26 6.362 6.26 1.858 0 3.461-.686 4.759-2.112l2.138 2.036c-1.655 1.935-4.149 2.978-7.075 2.978-5.446 0-9.518-3.843-9.518-9.161z"></path>
        </g>
        <g>
          <path fill="#161615" d="M72.96.452v17.813h-3.308V10.63H60.44v7.635H57.13V.453h3.309v7.354h9.212V.452z"></path>
        </g>
        <g>
          <path fill="#161615" d="M77.746.452h3.309v15.014h9.314v2.8H77.746z"></path>
        </g>
        <g>
          <path fill="#161615" d="M92.99.452h3.308v17.813h-3.307z"></path>
        </g>
        <g>
          <path fill="#161615" d="M114.47 15.492v2.774h-13.361V.452h13.003v2.774h-9.695v4.631h8.602v2.723h-8.602v4.912z"></path>
        </g>
        <g>
          <path fill="#161615" d="M130.248 9.155h3.13v7.1c-1.857 1.502-4.453 2.265-6.973 2.265-5.522 0-9.594-3.843-9.594-9.161 0-5.32 4.072-9.162 9.645-9.162 2.978 0 5.472.993 7.151 2.901l-2.086 2.036c-1.4-1.4-3.003-2.036-4.912-2.036-3.792 0-6.464 2.57-6.464 6.26 0 3.615 2.672 6.26 6.438 6.26 1.273 0 2.52-.253 3.665-.915z"></path>
        </g>
        <g>
          <path fill="#161615" d="M151.091 15.492v2.774h-13.36V.452h13.004v2.774h-9.696v4.631h8.602v2.723h-8.602v4.912z"></path>
        </g>
        <g>
          <path fill="#161615" d="M166.361 6.788c0 2.24-1.501 3.563-4.402 3.563h-3.868v-7.1h3.868c2.9 0 4.402 1.297 4.402 3.537zM170 18.266l-4.097-5.854c2.418-.942 3.792-2.926 3.792-5.624 0-3.945-2.902-6.336-7.584-6.336h-7.329v17.813h3.309v-5.191h4.02c.23 0 .458 0 .687-.026l3.64 5.217z"></path>
        </g>
      </g>
      <g>
        <path fill="#da000f" d="M4.427.04c-.056.12-.097.217-.143.31-.66 1.335-1.026 2.747-1.048 4.237-.019 1.423.289 2.786.84 4.094.408.967.83 1.928 1.228 2.9.277.673.51 1.362.615 2.09a6.82 6.82 0 0 1-.354 3.384c-.209.56-.492 1.091-.742 1.636-.072.158-.178.249-.37.248-.943-.008-1.886-.005-2.83-.006-.03 0-.06-.014-.127-.03.058-.121.108-.235.166-.343.39-.73.733-1.476.918-2.289.34-1.49.178-2.94-.366-4.351-.292-.759-.64-1.497-.962-2.244C.83 8.69.432 7.696.207 6.644-.217 4.662.023 2.747.808.891.88.723.968.563 1.031.392c.107-.297.312-.4.62-.391.642.017 1.285.015 1.928.018.203.001.407-.007.61-.007.071.001.142.016.238.027z"></path>
      </g>
      <g>
        <path fill="#da000f" d="M10.104.08c-.043.096-.086.201-.135.303-.584 1.197-.947 2.457-1.024 3.789a9.4 9.4 0 0 0 .61 3.94c.352.92.766 1.815 1.144 2.725.303.732.617 1.46.801 2.235.348 1.466.203 2.896-.346 4.286-.181.456-.42.89-.632 1.334-.076.157-.19.247-.377.246-.943-.006-1.886-.004-2.828-.006-.03 0-.058-.017-.123-.036.053-.112.098-.215.15-.315.358-.685.695-1.378.889-2.13.39-1.515.252-3-.298-4.448-.311-.82-.682-1.618-1.023-2.426-.389-.918-.765-1.84-.984-2.817-.473-2.104-.206-4.128.671-6.084.061-.137.13-.27.191-.407a.412.412 0 0 1 .405-.264c.942.003 1.885.01 2.828.019.017 0 .033.022.08.055z"></path>
      </g>
      <g>
        <path fill="#da000f" d="M12.934 18.897l.28-.54c.489-.938.847-1.916.966-2.976a6.14 6.14 0 0 0-.264-2.634c-.26-.791-.584-1.563-.888-2.34-.374-.957-.809-1.894-1.128-2.868-.81-2.479-.51-4.882.605-7.209.098-.205.24-.326.468-.326.952-.002 1.904 0 2.895 0-.036.104-.05.173-.08.233a10.042 10.042 0 0 0-1.108 4.32 8.872 8.872 0 0 0 .658 3.611c.483 1.191.98 2.376 1.476 3.562.462 1.104.688 2.25.601 3.45-.093 1.275-.525 2.441-1.161 3.54-.082.142-.192.218-.363.217-.943-.004-1.886-.003-2.829-.005-.029 0-.058-.015-.128-.035z"></path>
      </g>
    </g>
  </g>
</svg>
